
<svg width="342px" height="69px" viewBox="0 0 342 69" version="1.1" xmlns="http://www.w3.org/2000/svg" xmlns:xlink="http://www.w3.org/1999/xlink">
	<g id="Page-1" stroke="none" stroke-width="1" fill="none" fill-rule="evenodd">
		<g id="Group-2" transform="translate(0.473633, 0.138672)" fill="#000000" fill-rule="nonzero">
			<path d="M6.328125,42.8613281 L6.328125,24.9023438 C6.328125,20.0976562 9.19921875,16.875 13.6523438,16.875 C18.046875,16.875 20.2148438,19.4824219 20.2148438,24.1113281 L20.2148438,42.8613281 L26.5722656,42.8613281 L26.5722656,22.9101562 C26.5722656,15.8203125 22.6757812,11.4550781 15.9082031,11.4550781 C11.25,11.4550781 8.0859375,13.5644531 6.47460938,16.6992188 L6.328125,16.6992188 L6.328125,12.0410156 L0,12.0410156 L0,42.8613281 L6.328125,42.8613281 Z M35.59375,7.29492188 C37.6738281,7.29492188 39.2851562,5.65429688 39.2851562,3.66210938 C39.2851562,1.640625 37.6738281,0 35.59375,0 C33.5429688,0 31.9023438,1.640625 31.9023438,3.66210938 C31.9023438,5.65429688 33.5429688,7.29492188 35.59375,7.29492188 Z M38.7578125,42.8613281 L38.7578125,12.0410156 L32.4296875,12.0410156 L32.4296875,42.8613281 L38.7578125,42.8613281 Z M51.4707031,42.8613281 L51.4707031,31.7578125 L54.1074219,29.1503906 L64.5664062,42.8613281 L71.9199219,42.8613281 L58.765625,25.3417969 L71.421875,12.0410156 L63.9804688,12.0410156 L51.6171875,25.1953125 L51.4707031,25.1953125 L51.4707031,0.5859375 L45.1425781,0.5859375 L45.1425781,42.8613281 L51.4707031,42.8613281 Z M86.3320312,43.4765625 C95.1503906,43.4765625 100.951172,37.3828125 100.951172,27.4511719 L100.951172,27.3925781 C100.951172,17.5195312 95.0917969,11.4550781 86.3027344,11.4550781 C77.5429688,11.4550781 71.7128906,17.5488281 71.7128906,27.3925781 L71.7128906,27.4511719 C71.7128906,37.3535156 77.484375,43.4765625 86.3320312,43.4765625 Z M86.3613281,38.1738281 C81.4101562,38.1738281 78.1875,34.2773438 78.1875,27.4511719 L78.1875,27.3925781 C78.1875,20.6542969 81.4394531,16.7578125 86.3027344,16.7578125 C91.2539062,16.7578125 94.4765625,20.6542969 94.4765625,27.3925781 L94.4765625,27.4511719 C94.4765625,34.2480469 91.3125,38.1738281 86.3613281,38.1738281 Z M111.90625,42.8613281 L111.90625,0.5859375 L105.578125,0.5859375 L105.578125,42.8613281 L111.90625,42.8613281 Z M131.064453,43.4765625 C138.535156,43.4765625 143.28125,39.0234375 144.277344,34.1308594 L144.335938,33.8085938 L138.330078,33.8085938 L138.242188,34.0429688 C137.451172,36.3574219 134.960938,38.2910156 131.210938,38.2910156 C126.171875,38.2910156 122.978516,34.8925781 122.861328,29.0625 L144.6875,29.0625 L144.6875,26.9238281 C144.6875,17.6660156 139.384766,11.4550781 130.742188,11.4550781 C122.099609,11.4550781 116.533203,17.9003906 116.533203,27.5390625 L116.533203,27.5683594 C116.533203,37.2949219 122.011719,43.4765625 131.064453,43.4765625 Z M138.417969,24.5800781 L122.949219,24.5800781 C123.505859,19.4238281 126.669922,16.640625 130.771484,16.640625 C134.902344,16.640625 137.890625,19.2480469 138.417969,24.5800781 Z M159.890625,43.4765625 C161.179688,43.4765625 162.380859,43.3300781 163.113281,43.2128906 L163.113281,38.3203125 C162.644531,38.3789062 162.087891,38.4375 161.414062,38.4375 C158.748047,38.4375 157.341797,37.5 157.341797,34.3652344 L157.341797,17.0800781 L163.113281,17.0800781 L163.113281,12.0410156 L157.341797,12.0410156 L157.341797,4.01367188 L150.867188,4.01367188 L150.867188,12.0410156 L146.443359,12.0410156 L146.443359,17.0800781 L150.867188,17.0800781 L150.867188,34.7460938 C150.867188,40.8984375 153.796875,43.4765625 159.890625,43.4765625 Z M178.638672,43.4765625 C179.927734,43.4765625 181.128906,43.3300781 181.861328,43.2128906 L181.861328,38.3203125 C181.392578,38.3789062 180.835938,38.4375 180.162109,38.4375 C177.496094,38.4375 176.089844,37.5 176.089844,34.3652344 L176.089844,17.0800781 L181.861328,17.0800781 L181.861328,12.0410156 L176.089844,12.0410156 L176.089844,4.01367188 L169.615234,4.01367188 L169.615234,12.0410156 L165.191406,12.0410156 L165.191406,17.0800781 L169.615234,17.0800781 L169.615234,34.7460938 C169.615234,40.8984375 172.544922,43.4765625 178.638672,43.4765625 Z M195.160156,43.4179688 C199.232422,43.4179688 202.806641,41.3085938 204.59375,37.9980469 L204.710938,37.9980469 L204.710938,42.8613281 L211.068359,42.8613281 L211.068359,21.6210938 C211.068359,15.4394531 206.292969,11.4550781 198.763672,11.4550781 C191.175781,11.4550781 186.576172,15.5273438 186.136719,20.8300781 L186.107422,21.1523438 L192.083984,21.1523438 L192.142578,20.8886719 C192.669922,18.4277344 194.925781,16.6992188 198.587891,16.6992188 C202.513672,16.6992188 204.710938,18.75 204.710938,22.1484375 L204.710938,24.4628906 L196.332031,24.9609375 C189.037109,25.4003906 184.876953,28.6816406 184.876953,34.0429688 L184.876953,34.1015625 C184.876953,39.6386719 189.007812,43.4179688 195.160156,43.4179688 Z M196.888672,38.3496094 C193.490234,38.3496094 191.263672,36.6503906 191.263672,33.9550781 L191.263672,33.8964844 C191.263672,31.2890625 193.373047,29.6191406 197.181641,29.3847656 L204.710938,28.9160156 L204.710938,31.3183594 C204.710938,35.3320312 201.341797,38.3496094 196.888672,38.3496094 Z M235.001953,40.4003906 L235.001953,28.5644531 L247.394531,28.5644531 L247.394531,22.8515625 L235.001953,22.8515625 L235.001953,11.015625 L229.289062,11.015625 L229.289062,22.8515625 L216.925781,22.8515625 L216.925781,28.5644531 L229.289062,28.5644531 L229.289062,40.4003906 L235.001953,40.4003906 Z M256.855469,53.1445312 C262.890625,53.1445312 266.113281,50.6835938 268.398438,44.296875 L279.882812,12.0410156 L273.203125,12.0410156 L265.439453,37.1191406 L265.234375,37.1191406 L257.470703,12.0410156 L250.615234,12.0410156 L261.835938,42.890625 L261.308594,44.3554688 C260.253906,47.34375 258.613281,48.1347656 255.625,48.1347656 C254.775391,48.1347656 254.042969,48.0175781 253.544922,47.9003906 L253.544922,52.8515625 C254.306641,52.9980469 255.625,53.1445312 256.855469,53.1445312 Z M295.144531,43.4765625 C303.962891,43.4765625 309.763672,37.3828125 309.763672,27.4511719 L309.763672,27.3925781 C309.763672,17.5195312 303.904297,11.4550781 295.115234,11.4550781 C286.355469,11.4550781 280.525391,17.5488281 280.525391,27.3925781 L280.525391,27.4511719 C280.525391,37.3535156 286.296875,43.4765625 295.144531,43.4765625 Z M295.173828,38.1738281 C290.222656,38.1738281 287,34.2773438 287,27.4511719 L287,27.3925781 C287,20.6542969 290.251953,16.7578125 295.115234,16.7578125 C300.066406,16.7578125 303.289062,20.6542969 303.289062,27.3925781 L303.289062,27.4511719 C303.289062,34.2480469 300.125,38.1738281 295.173828,38.1738281 Z M324.644531,43.4765625 C329.332031,43.4765625 332.466797,41.3378906 334.078125,38.2324219 L334.224609,38.2324219 L334.224609,42.8613281 L340.582031,42.8613281 L340.582031,12.0410156 L334.224609,12.0410156 L334.224609,30.0292969 C334.224609,34.8339844 331.353516,38.0273438 326.900391,38.0273438 C322.505859,38.0273438 320.337891,35.4492188 320.337891,30.7910156 L320.337891,12.0410156 L314.009766,12.0410156 L314.009766,32.0214844 C314.009766,39.1113281 317.876953,43.4765625 324.644531,43.4765625 Z" id="nikoletta+you"></path>
			<path d="M6.07646484,65.0253906 C7.9734375,65.0253906 9.63457031,63.9692383 10.1370117,62.472168 L10.1575195,62.472168 L10.1575195,64.8613281 L10.6599609,64.8613281 L10.6599609,57.6938477 C10.6599609,55.4277344 9.24492188,54.0332031 6.94804688,54.0332031 C4.74345703,54.0332031 3.24638672,55.140625 2.94902344,57.1401367 L2.92851563,57.2734375 L3.42070313,57.2734375 L3.44121094,57.1503906 C3.72832031,55.4277344 5.03056641,54.5048828 6.94804688,54.5048828 C8.9578125,54.5048828 10.1575195,55.7148438 10.1575195,57.7348633 L10.1575195,58.6987305 L6.31230469,58.9858398 C3.86162109,59.1806641 2.559375,60.2060547 2.559375,62.0209961 L2.559375,62.03125 C2.559375,63.8051758 4.01542969,65.0253906 6.07646484,65.0253906 Z M6.10722656,64.5537109 C4.35380859,64.5537109 3.06181641,63.4975586 3.06181641,62.03125 L3.06181641,62.0209961 C3.06181641,60.4931641 4.24101563,59.5908203 6.38408203,59.4267578 L10.1575195,59.1396484 L10.1575195,60.934082 C10.1575195,62.9438477 8.34257813,64.5537109 6.10722656,64.5537109 Z M14.1945313,64.8613281 L14.1945313,58.4628906 C14.1945313,56.1352539 15.7018555,54.5151367 17.9269531,54.5151367 C20.0700195,54.5151367 21.4132813,55.796875 21.4132813,58.2475586 L21.4132813,64.8613281 L21.9157227,64.8613281 L21.9157227,58.2167969 C21.9157227,55.5610352 20.4289063,54.043457 18.0192383,54.043457 C16.0915039,54.043457 14.6867188,55.140625 14.2150391,56.6069336 L14.1945313,56.6069336 L14.1945313,54.1972656 L13.6920898,54.1972656 L13.6920898,64.8613281 L14.1945313,64.8613281 Z M30.2871094,52.0234375 C30.5332031,52.0234375 30.7485352,51.8183594 30.7485352,51.5620117 C30.7485352,51.2954102 30.5332031,51.1005859 30.2871094,51.1005859 C30.0307617,51.1005859 29.8154297,51.2954102 29.8154297,51.5620117 C29.8154297,51.8183594 30.0307617,52.0234375 30.2871094,52.0234375 Z M30.5332031,64.8613281 L30.5332031,54.1972656 L30.0307617,54.1972656 L30.0307617,64.8613281 L30.5332031,64.8613281 Z M34.2318359,64.8613281 L34.2318359,58.4628906 C34.2318359,56.1352539 35.7391602,54.5151367 37.9642578,54.5151367 C40.1073242,54.5151367 41.4505859,55.796875 41.4505859,58.2475586 L41.4505859,64.8613281 L41.9530273,64.8613281 L41.9530273,58.2167969 C41.9530273,55.5610352 40.4662109,54.043457 38.056543,54.043457 C36.1288086,54.043457 34.7240234,55.140625 34.2523438,56.6069336 L34.2318359,56.6069336 L34.2318359,54.1972656 L33.7293945,54.1972656 L33.7293945,64.8613281 L34.2318359,64.8613281 Z M48.9124023,65.0253906 C50.9016602,65.0253906 52.5012695,63.7436523 53.0242188,61.815918 L53.0754883,61.815918 L53.0754883,64.8613281 L53.5779297,64.8613281 L53.5779297,50.0649414 L53.0754883,50.0649414 L53.0754883,57.3144531 L53.0549805,57.3144531 C52.562793,55.3354492 50.9426758,54.0332031 48.9226563,54.0332031 C46.2976563,54.0332031 44.4416992,56.237793 44.4416992,59.5087891 L44.4416992,59.519043 C44.4416992,62.800293 46.2874023,65.0253906 48.9124023,65.0253906 Z M48.9841797,64.5537109 C46.5847656,64.5537109 44.9543945,62.5234375 44.9543945,59.519043 L44.9543945,59.5087891 C44.9543945,56.5249023 46.5847656,54.5048828 48.9739258,54.5048828 C51.3630859,54.5048828 53.0754883,56.5761719 53.0754883,59.5292969 L53.0754883,59.5395508 C53.0754883,62.4824219 51.3835938,64.5537109 48.9841797,64.5537109 Z M60.9577148,65.0253906 C63.2135742,65.0253906 64.8336914,63.8461914 65.2643555,61.8979492 L65.2848633,61.8056641 L64.7619141,61.8056641 L64.7414063,61.8876953 C64.3209961,63.5488281 62.9572266,64.5537109 60.9679688,64.5537109 C58.4660156,64.5537109 56.7946289,62.7797852 56.7536133,59.5600586 L65.4181641,59.5600586 L65.4181641,59.2729492 C65.4181641,56.0839844 63.562207,54.0332031 60.834668,54.0332031 C58.1173828,54.0332031 56.240918,56.0942383 56.240918,59.519043 L56.240918,59.5292969 C56.240918,62.9643555 58.1173828,65.0253906 60.9577148,65.0253906 Z M64.9259766,59.0986328 L56.7536133,59.0986328 C56.8253906,56.3095703 58.4865234,54.5048828 60.834668,54.5048828 C63.1930664,54.5048828 64.8541992,56.3095703 64.9259766,59.0986328 Z M68.4810547,68.4501953 L68.4810547,61.7441406 L68.5015625,61.7441406 C68.9219727,63.559082 70.521582,65.0253906 72.6133789,65.0253906 C75.2793945,65.0253906 77.1148438,62.8310547 77.1148438,59.5395508 L77.1148438,59.519043 C77.1148438,56.2480469 75.2691406,54.0332031 72.6133789,54.0332031 C70.5318359,54.0332031 68.9527344,55.4995117 68.5015625,57.3554688 L68.4810547,57.3554688 L68.4810547,54.1972656 L67.9786133,54.1972656 L67.9786133,68.4501953 L68.4810547,68.4501953 Z M72.5928711,64.5537109 C70.1729492,64.5537109 68.4810547,62.5029297 68.4810547,59.5292969 L68.4810547,59.519043 C68.4810547,56.5454102 70.1832031,54.5048828 72.5928711,54.5048828 C74.9615234,54.5048828 76.6124023,56.5351562 76.6124023,59.519043 L76.6124023,59.5395508 C76.6124023,62.5234375 74.9717773,64.5537109 72.5928711,64.5537109 Z M83.8486328,65.0253906 C86.1044922,65.0253906 87.7246094,63.8461914 88.1552734,61.8979492 L88.1757813,61.8056641 L87.652832,61.8056641 L87.6323242,61.8876953 C87.2119141,63.5488281 85.8481445,64.5537109 83.8588867,64.5537109 C81.3569336,64.5537109 79.6855469,62.7797852 79.6445313,59.5600586 L88.309082,59.5600586 L88.309082,59.2729492 C88.309082,56.0839844 86.453125,54.0332031 83.7255859,54.0332031 C81.0083008,54.0332031 79.1318359,56.0942383 79.1318359,59.519043 L79.1318359,59.5292969 C79.1318359,62.9643555 81.0083008,65.0253906 83.8486328,65.0253906 Z M87.8168945,59.0986328 L79.6445313,59.0986328 C79.7163086,56.3095703 81.3774414,54.5048828 83.7255859,54.5048828 C86.0839844,54.5048828 87.7451172,56.3095703 87.8168945,59.0986328 Z M91.3719727,64.8613281 L91.3719727,58.4628906 C91.3719727,56.1352539 92.8792969,54.5151367 95.1043945,54.5151367 C97.2474609,54.5151367 98.5907227,55.796875 98.5907227,58.2475586 L98.5907227,64.8613281 L99.0931641,64.8613281 L99.0931641,58.2167969 C99.0931641,55.5610352 97.6063477,54.043457 95.1966797,54.043457 C93.2689453,54.043457 91.8641602,55.140625 91.3924805,56.6069336 L91.3719727,56.6069336 L91.3719727,54.1972656 L90.8695313,54.1972656 L90.8695313,64.8613281 L91.3719727,64.8613281 Z M106.052539,65.0253906 C108.041797,65.0253906 109.641406,63.7436523 110.164355,61.815918 L110.215625,61.815918 L110.215625,64.8613281 L110.718066,64.8613281 L110.718066,50.0649414 L110.215625,50.0649414 L110.215625,57.3144531 L110.195117,57.3144531 C109.70293,55.3354492 108.082813,54.0332031 106.062793,54.0332031 C103.437793,54.0332031 101.581836,56.237793 101.581836,59.5087891 L101.581836,59.519043 C101.581836,62.800293 103.427539,65.0253906 106.052539,65.0253906 Z M106.124316,64.5537109 C103.724902,64.5537109 102.094531,62.5234375 102.094531,59.519043 L102.094531,59.5087891 C102.094531,56.5249023 103.724902,54.5048828 106.114063,54.5048828 C108.503223,54.5048828 110.215625,56.5761719 110.215625,59.5292969 L110.215625,59.5395508 C110.215625,62.4824219 108.52373,64.5537109 106.124316,64.5537109 Z M118.097852,65.0253906 C120.353711,65.0253906 121.973828,63.8461914 122.404492,61.8979492 L122.425,61.8056641 L121.902051,61.8056641 L121.881543,61.8876953 C121.461133,63.5488281 120.097363,64.5537109 118.108105,64.5537109 C115.606152,64.5537109 113.934766,62.7797852 113.89375,59.5600586 L122.558301,59.5600586 L122.558301,59.2729492 C122.558301,56.0839844 120.702344,54.0332031 117.974805,54.0332031 C115.25752,54.0332031 113.381055,56.0942383 113.381055,59.519043 L113.381055,59.5292969 C113.381055,62.9643555 115.25752,65.0253906 118.097852,65.0253906 Z M122.066113,59.0986328 L113.89375,59.0986328 C113.965527,56.3095703 115.62666,54.5048828 117.974805,54.5048828 C120.333203,54.5048828 121.994336,56.3095703 122.066113,59.0986328 Z M125.621191,64.8613281 L125.621191,58.4628906 C125.621191,56.1352539 127.128516,54.5151367 129.353613,54.5151367 C131.49668,54.5151367 132.839941,55.796875 132.839941,58.2475586 L132.839941,64.8613281 L133.342383,64.8613281 L133.342383,58.2167969 C133.342383,55.5610352 131.855566,54.043457 129.445898,54.043457 C127.518164,54.043457 126.113379,55.140625 125.641699,56.6069336 L125.621191,56.6069336 L125.621191,54.1972656 L125.11875,54.1972656 L125.11875,64.8613281 L125.621191,64.8613281 Z M138.989258,65.0253906 C139.276367,65.0253906 139.553223,64.9946289 139.737793,64.9433594 L139.737793,64.5024414 C139.583984,64.543457 139.348145,64.5639648 139.061035,64.5639648 C137.974121,64.5639648 137.481934,64.0102539 137.481934,62.7387695 L137.481934,54.6586914 L139.737793,54.6586914 L139.737793,54.1972656 L137.481934,54.1972656 L137.481934,51.315918 L136.969238,51.315918 L136.969238,54.1972656 L135.390137,54.1972656 L135.390137,54.6586914 L136.969238,54.6586914 L136.969238,62.7797852 C136.969238,64.2973633 137.635742,65.0253906 138.989258,65.0253906 Z M151.513477,65.0253906 C153.769336,65.0253906 155.389453,63.8461914 155.820117,61.8979492 L155.840625,61.8056641 L155.317676,61.8056641 L155.297168,61.8876953 C154.876758,63.5488281 153.512988,64.5537109 151.52373,64.5537109 C149.021777,64.5537109 147.350391,62.7797852 147.309375,59.5600586 L155.973926,59.5600586 L155.973926,59.2729492 C155.973926,56.0839844 154.117969,54.0332031 151.39043,54.0332031 C148.673145,54.0332031 146.79668,56.0942383 146.79668,59.519043 L146.79668,59.5292969 C146.79668,62.9643555 148.673145,65.0253906 151.513477,65.0253906 Z M155.481738,59.0986328 L147.309375,59.0986328 C147.381152,56.3095703 149.042285,54.5048828 151.39043,54.5048828 C153.748828,54.5048828 155.409961,56.3095703 155.481738,59.0986328 Z M161.948926,65.0253906 C164.194531,65.0253906 165.763379,63.8256836 165.763379,62.1030273 L165.763379,62.0927734 C165.763379,60.6367188 164.891797,59.847168 162.810254,59.3549805 L161.374707,59.0268555 C159.51875,58.5961914 158.770215,57.980957 158.770215,56.8632812 L158.770215,56.8530273 C158.770215,55.4892578 160.051953,54.4946289 161.805371,54.4946289 C163.630566,54.4946289 164.871289,55.5610352 165.107129,57.2016602 L165.117383,57.2734375 L165.60957,57.2734375 L165.599316,57.1914062 C165.363477,55.2636719 163.958691,54.0332031 161.805371,54.0332031 C159.75459,54.0332031 158.25752,55.2021484 158.25752,56.8530273 L158.25752,56.8632812 C158.25752,58.206543 159.190625,59.0063477 161.220898,59.4780273 L162.656445,59.8164062 C164.512402,60.2470703 165.250684,60.8828125 165.250684,62.1132812 L165.250684,62.1235352 C165.250684,63.559082 163.886914,64.5639648 161.948926,64.5639648 C160.031445,64.5639648 158.62666,63.4257812 158.411328,61.8671875 L158.401074,61.7851562 L157.898633,61.7851562 L157.908887,61.8774414 C158.113965,63.7128906 159.713574,65.0253906 161.948926,65.0253906 Z M172.343359,65.0253906 C174.517188,65.0253906 176.137305,63.7641602 176.506445,61.8671875 L176.526953,61.7646484 L176.014258,61.7646484 L175.99375,61.8569336 C175.624609,63.4770508 174.199316,64.5537109 172.343359,64.5537109 C169.820898,64.5537109 168.200781,62.6362305 168.200781,59.5292969 L168.200781,59.519043 C168.200781,56.4428711 169.810645,54.5048828 172.343359,54.5048828 C174.20957,54.5048828 175.645117,55.5917969 176.014258,57.2016602 L176.034766,57.2939453 L176.547461,57.2939453 L176.526953,57.1914062 C176.168066,55.3251953 174.49668,54.0332031 172.343359,54.0332031 C169.513281,54.0332031 167.688086,56.1660156 167.688086,59.519043 L167.688086,59.5292969 C167.688086,62.902832 169.503027,65.0253906 172.343359,65.0253906 Z M183.209473,65.0253906 C186.008789,65.0253906 187.916016,62.9130859 187.916016,59.5292969 L187.916016,59.5087891 C187.916016,56.125 185.998535,54.0332031 183.209473,54.0332031 C180.410156,54.0332031 178.513184,56.1352539 178.513184,59.5087891 L178.513184,59.5292969 C178.513184,62.902832 180.399902,65.0151367 183.209473,65.0253906 Z M183.209473,64.5537109 C180.687012,64.543457 179.025879,62.6157227 179.025879,59.5292969 L179.025879,59.5087891 C179.025879,56.4326172 180.697266,54.5048828 183.209473,54.5048828 C185.701172,54.5048828 187.413574,56.4223633 187.413574,59.5087891 L187.413574,59.5292969 C187.413574,62.6157227 185.711426,64.5537109 183.209473,64.5537109 Z M190.978906,64.8613281 L190.978906,58.206543 C190.978906,56.0532227 192.06582,54.5151367 193.829492,54.5151367 C194.352441,54.5151367 194.731836,54.6279297 194.97793,54.7612305 L194.97793,54.2382812 C194.762598,54.1357422 194.352441,54.0332031 193.90127,54.0332031 C192.424707,54.0332031 191.440332,54.8740234 190.999414,56.340332 L190.978906,56.340332 L190.978906,54.1972656 L190.476465,54.1972656 L190.476465,64.8613281 L190.978906,64.8613281 Z M200.224902,65.0253906 C200.512012,65.0253906 200.788867,64.9946289 200.973438,64.9433594 L200.973438,64.5024414 C200.819629,64.543457 200.583789,64.5639648 200.29668,64.5639648 C199.209766,64.5639648 198.717578,64.0102539 198.717578,62.7387695 L198.717578,54.6586914 L200.973438,54.6586914 L200.973438,54.1972656 L198.717578,54.1972656 L198.717578,51.315918 L198.204883,51.315918 L198.204883,54.1972656 L196.625781,54.1972656 L196.625781,54.6586914 L198.204883,54.6586914 L198.204883,62.7797852 C198.204883,64.2973633 198.871387,65.0253906 200.224902,65.0253906 Z" id="anindependentescort"></path>
		</g>
	</g>
</svg>