
<svg width="343px" height="65px" viewBox="0 0 343 65" version="1.1" xmlns="http://www.w3.org/2000/svg" xmlns:xlink="http://www.w3.org/1999/xlink">
	<g id="Page-1" stroke="none" stroke-width="1" fill="none" fill-rule="evenodd">
		<g id="Group-2" transform="translate(0.006982, 0.724609)" fill="#000000" fill-rule="nonzero">
			<path d="M3.70688477,42.2753906 L3.70688477,24.1113281 C3.70688477,17.7832031 7.74985352,13.3886719 13.7557129,13.3886719 C19.5564941,13.3886719 23.1893066,16.9921875 23.1893066,23.7011719 L23.1893066,42.2753906 L25.445166,42.2753906 L25.445166,23.4375 C25.445166,15.8496094 21.1385254,11.3378906 14.3416504,11.3378906 C9.06821289,11.3378906 5.20102539,14.2089844 3.79477539,18.28125 L3.70688477,18.28125 L3.70688477,0 L1.45102539,0 L1.45102539,42.2753906 L3.70688477,42.2753906 Z M43.5486816,42.7734375 C51.6346191,42.7734375 57.1424316,36.7382812 57.1424316,27.0410156 L57.1424316,26.9824219 C57.1424316,17.3144531 51.6053223,11.3085938 43.5486816,11.3085938 C35.4627441,11.3085938 29.9842285,17.34375 29.9842285,26.9824219 L29.9842285,27.0410156 C29.9842285,36.7089844 35.4334473,42.7441406 43.5486816,42.7734375 Z M43.5486816,40.7226562 C36.7811035,40.6933594 32.2693848,35.4785156 32.2693848,27.0410156 L32.2693848,26.9824219 C32.2693848,18.5742188 36.7811035,13.359375 43.5486816,13.359375 C50.2869629,13.359375 54.8572754,18.5449219 54.8572754,26.9824219 L54.8572754,27.0410156 C54.8572754,35.4785156 50.3162598,40.7226562 43.5486816,40.7226562 Z M69.8846191,42.7734375 C70.7635254,42.7734375 71.6131348,42.6855469 72.1404785,42.5390625 L72.1404785,40.6347656 C71.7303223,40.7226562 71.0564941,40.78125 70.2947754,40.78125 C67.2771973,40.78125 65.8709473,39.3457031 65.8709473,35.8007812 L65.8709473,13.7988281 L72.1404785,13.7988281 L72.1404785,11.8066406 L65.8709473,11.8066406 L65.8709473,3.57421875 L63.5271973,3.57421875 L63.5271973,11.8066406 L59.0154785,11.8066406 L59.0154785,13.7988281 L63.5271973,13.7988281 L63.5271973,35.9179688 C63.5271973,40.6054688 65.6072754,42.7734375 69.8846191,42.7734375 Z M88.3396973,42.890625 C92.7635254,42.890625 96.1619629,40.6640625 98.007666,37.0605469 L98.1248535,37.0605469 L98.1248535,42.2753906 L104.482275,42.2753906 L104.482275,0 L98.1248535,0 L98.1248535,16.6992188 L98.007666,16.6992188 C96.1619629,13.0664062 92.6463379,10.8691406 88.2811035,10.8691406 C80.5467285,10.8691406 75.4490723,17.0214844 75.4490723,26.8359375 L75.4490723,26.8652344 C75.4490723,36.6796875 80.4881348,42.890625 88.3396973,42.890625 Z M90.0096191,37.4414062 C84.9998535,37.4414062 81.9236816,33.4277344 81.9236816,26.8652344 L81.9236816,26.8359375 C81.9236816,20.3320312 85.0291504,16.2890625 90.0096191,16.2890625 C94.7557129,16.2890625 98.1541504,20.4492188 98.1541504,26.8359375 L98.1541504,26.8652344 C98.1541504,33.28125 94.7850098,37.4414062 90.0096191,37.4414062 Z M119.509619,42.8320312 C123.581885,42.8320312 127.156104,40.7226562 128.943213,37.4121094 L129.0604,37.4121094 L129.0604,42.2753906 L135.417822,42.2753906 L135.417822,21.0351562 C135.417822,14.8535156 130.642432,10.8691406 123.113135,10.8691406 C115.525244,10.8691406 110.925635,14.9414062 110.486182,20.2441406 L110.456885,20.5664062 L116.433447,20.5664062 L116.492041,20.3027344 C117.019385,17.8417969 119.275244,16.1132812 122.937354,16.1132812 C126.863135,16.1132812 129.0604,18.1640625 129.0604,21.5625 L129.0604,23.8769531 L120.681494,24.375 C113.386572,24.8144531 109.226416,28.0957031 109.226416,33.4570312 L109.226416,33.515625 C109.226416,39.0527344 113.357275,42.8320312 119.509619,42.8320312 Z M121.238135,37.7636719 C117.839697,37.7636719 115.613135,36.0644531 115.613135,33.3691406 L115.613135,33.3105469 C115.613135,30.703125 117.72251,29.0332031 121.531104,28.7988281 L129.0604,28.3300781 L129.0604,30.7324219 C129.0604,34.7460938 125.69126,37.7636719 121.238135,37.7636719 Z M151.851416,42.890625 C153.140479,42.890625 154.34165,42.7441406 155.074072,42.6269531 L155.074072,37.734375 C154.605322,37.7929688 154.048682,37.8515625 153.374854,37.8515625 C150.708838,37.8515625 149.302588,36.9140625 149.302588,33.7792969 L149.302588,16.4941406 L155.074072,16.4941406 L155.074072,11.4550781 L149.302588,11.4550781 L149.302588,3.42773438 L142.827979,3.42773438 L142.827979,11.4550781 L138.40415,11.4550781 L138.40415,16.4941406 L142.827979,16.4941406 L142.827979,34.1601562 C142.827979,40.3125 145.757666,42.890625 151.851416,42.890625 Z M172.210791,42.890625 C179.681494,42.890625 184.427588,38.4375 185.423682,33.5449219 L185.482275,33.2226562 L179.476416,33.2226562 L179.388525,33.4570312 C178.59751,35.7714844 176.107275,37.7050781 172.357275,37.7050781 C167.318213,37.7050781 164.124854,34.3066406 164.007666,28.4765625 L185.833838,28.4765625 L185.833838,26.3378906 C185.833838,17.0800781 180.531104,10.8691406 171.888525,10.8691406 C163.245947,10.8691406 157.679541,17.3144531 157.679541,26.953125 L157.679541,26.9824219 C157.679541,36.7089844 163.158057,42.890625 172.210791,42.890625 Z M179.564307,23.9941406 L164.095557,23.9941406 C164.652197,18.8378906 167.81626,16.0546875 171.917822,16.0546875 C176.048682,16.0546875 179.036963,18.6621094 179.564307,23.9941406 Z M201.769385,42.890625 C209.03501,42.890625 214.308447,39.0234375 214.308447,33.3984375 L214.308447,33.3691406 C214.308447,28.9453125 211.906104,26.4550781 205.607275,24.9902344 L200.59751,23.8476562 C197.286963,23.0566406 196.027197,21.7675781 196.027197,19.8632812 L196.027197,19.8339844 C196.027197,17.3730469 198.165869,15.7617188 201.564307,15.7617188 C205.138525,15.7617188 207.2479,17.6367188 207.62876,20.3320312 L207.658057,20.5371094 L213.605322,20.5371094 L213.576025,20.1855469 C213.25376,14.9414062 208.859229,10.8691406 201.564307,10.8691406 C194.474463,10.8691406 189.669775,14.6484375 189.669775,20.15625 L189.669775,20.1855469 C189.669775,24.6679688 192.570166,27.4804688 198.429541,28.828125 L203.468604,29.9707031 C206.77915,30.7617188 207.892432,31.9042969 207.892432,33.8964844 L207.892432,33.9257812 C207.892432,36.4160156 205.607275,37.9980469 201.798682,37.9980469 C197.902197,37.9980469 195.792822,36.328125 195.206885,33.4863281 L195.148291,33.1933594 L188.87876,33.1933594 L188.908057,33.4570312 C189.552588,39.0820312 194.064307,42.890625 201.769385,42.890625 Z M237.011572,39.8144531 L237.011572,27.9785156 L249.40415,27.9785156 L249.40415,22.265625 L237.011572,22.265625 L237.011572,10.4296875 L231.298682,10.4296875 L231.298682,22.265625 L218.9354,22.265625 L218.9354,27.9785156 L231.298682,27.9785156 L231.298682,39.8144531 L237.011572,39.8144531 Z M258.865088,52.5585938 C264.900244,52.5585938 268.1229,50.0976562 270.408057,43.7109375 L281.892432,11.4550781 L275.212744,11.4550781 L267.449072,36.5332031 L267.243994,36.5332031 L259.480322,11.4550781 L252.624854,11.4550781 L263.845557,42.3046875 L263.318213,43.7695312 C262.263525,46.7578125 260.6229,47.5488281 257.634619,47.5488281 C256.78501,47.5488281 256.052588,47.4316406 255.554541,47.3144531 L255.554541,52.265625 C256.31626,52.4121094 257.634619,52.5585938 258.865088,52.5585938 Z M297.15415,42.890625 C305.97251,42.890625 311.773291,36.796875 311.773291,26.8652344 L311.773291,26.8066406 C311.773291,16.9335938 305.913916,10.8691406 297.124854,10.8691406 C288.365088,10.8691406 282.53501,16.9628906 282.53501,26.8066406 L282.53501,26.8652344 C282.53501,36.7675781 288.306494,42.890625 297.15415,42.890625 Z M297.183447,37.5878906 C292.232275,37.5878906 289.009619,33.6914062 289.009619,26.8652344 L289.009619,26.8066406 C289.009619,20.0683594 292.261572,16.171875 297.124854,16.171875 C302.076025,16.171875 305.298682,20.0683594 305.298682,26.8066406 L305.298682,26.8652344 C305.298682,33.6621094 302.134619,37.5878906 297.183447,37.5878906 Z M326.65415,42.890625 C331.34165,42.890625 334.476416,40.7519531 336.087744,37.6464844 L336.234229,37.6464844 L336.234229,42.2753906 L342.59165,42.2753906 L342.59165,11.4550781 L336.234229,11.4550781 L336.234229,29.4433594 C336.234229,34.2480469 333.363135,37.4414062 328.91001,37.4414062 C324.515479,37.4414062 322.34751,34.8632812 322.34751,30.2050781 L322.34751,11.4550781 L316.019385,11.4550781 L316.019385,31.4355469 C316.019385,38.5253906 319.886572,42.890625 326.65415,42.890625 Z" id="hotdates+you"></path>
			<path d="M3.51708984,60.4394531 C5.4140625,60.4394531 7.07519531,59.3833008 7.57763672,57.8862305 L7.59814453,57.8862305 L7.59814453,60.2753906 L8.10058594,60.2753906 L8.10058594,53.1079102 C8.10058594,50.8417969 6.68554688,49.4472656 4.38867188,49.4472656 C2.18408203,49.4472656 0.687011719,50.5546875 0.389648438,52.5541992 L0.369140625,52.6875 L0.861328125,52.6875 L0.881835938,52.5644531 C1.16894531,50.8417969 2.47119141,49.9189453 4.38867188,49.9189453 C6.3984375,49.9189453 7.59814453,51.1289062 7.59814453,53.1489258 L7.59814453,54.112793 L3.75292969,54.3999023 C1.30224609,54.5947266 0,55.6201172 0,57.4350586 L0,57.4453125 C0,59.2192383 1.45605469,60.4394531 3.51708984,60.4394531 Z M3.54785156,59.9677734 C1.79443359,59.9677734 0.502441406,58.9116211 0.502441406,57.4453125 L0.502441406,57.4350586 C0.502441406,55.9072266 1.68164062,55.0048828 3.82470703,54.8408203 L7.59814453,54.5537109 L7.59814453,56.3481445 C7.59814453,58.3579102 5.78320312,59.9677734 3.54785156,59.9677734 Z M16.6257813,63.8642578 L16.6257813,57.1582031 L16.6462891,57.1582031 C17.0666992,58.9731445 18.6663086,60.4394531 20.7581055,60.4394531 C23.4241211,60.4394531 25.2595703,58.2451172 25.2595703,54.9536133 L25.2595703,54.9331055 C25.2595703,51.6621094 23.4138672,49.4472656 20.7581055,49.4472656 C18.6765625,49.4472656 17.0974609,50.9135742 16.6462891,52.7695312 L16.6257813,52.7695312 L16.6257813,49.6113281 L16.1233398,49.6113281 L16.1233398,63.8642578 L16.6257813,63.8642578 Z M20.7375977,59.9677734 C18.3176758,59.9677734 16.6257813,57.9169922 16.6257813,54.9433594 L16.6257813,54.9331055 C16.6257813,51.9594727 18.3279297,49.9189453 20.7375977,49.9189453 C23.10625,49.9189453 24.7571289,51.9492188 24.7571289,54.9331055 L24.7571289,54.9536133 C24.7571289,57.9375 23.1165039,59.9677734 20.7375977,59.9677734 Z M28.3224609,60.2753906 L28.3224609,53.6206055 C28.3224609,51.4672852 29.409375,49.9291992 31.1730469,49.9291992 C31.6959961,49.9291992 32.0753906,50.0419922 32.3214844,50.175293 L32.3214844,49.6523438 C32.1061523,49.5498047 31.6959961,49.4472656 31.2448242,49.4472656 C29.7682617,49.4472656 28.7838867,50.2880859 28.3429688,51.7543945 L28.3224609,51.7543945 L28.3224609,49.6113281 L27.8200195,49.6113281 L27.8200195,60.2753906 L28.3224609,60.2753906 Z M37.9068359,60.4394531 C40.1626953,60.4394531 41.7828125,59.2602539 42.2134766,57.3120117 L42.2339844,57.2197266 L41.7110352,57.2197266 L41.6905273,57.3017578 C41.2701172,58.9628906 39.9063477,59.9677734 37.9170898,59.9677734 C35.4151367,59.9677734 33.74375,58.1938477 33.7027344,54.9741211 L42.3672852,54.9741211 L42.3672852,54.6870117 C42.3672852,51.4980469 40.5113281,49.4472656 37.7837891,49.4472656 C35.0665039,49.4472656 33.1900391,51.5083008 33.1900391,54.9331055 L33.1900391,54.9433594 C33.1900391,58.378418 35.0665039,60.4394531 37.9068359,60.4394531 Z M41.8750977,54.5126953 L33.7027344,54.5126953 C33.7745117,51.7236328 35.4356445,49.9189453 37.7837891,49.9189453 C40.1421875,49.9189453 41.8033203,51.7236328 41.8750977,54.5126953 Z M45.4301758,60.2753906 L45.4301758,54 C45.4301758,51.4980469 46.7426758,49.9291992 48.6293945,49.9291992 C50.3520508,49.9291992 51.5927734,51.2416992 51.5927734,53.2617188 L51.5927734,60.2753906 L52.0952148,60.2753906 L52.0952148,53.6923828 C52.0952148,51.4570312 53.3769531,49.9291992 55.2944336,49.9291992 C57.1196289,49.9291992 58.2578125,51.1904297 58.2578125,53.2412109 L58.2578125,60.2753906 L58.7602539,60.2753906 L58.7602539,53.1181641 C58.7602539,50.8828125 57.3964844,49.4575195 55.355957,49.4575195 C53.4897461,49.4575195 52.3105469,50.7290039 51.972168,52.1337891 L51.9516602,52.1337891 C51.6748047,50.6777344 50.4443359,49.4575195 48.690918,49.4575195 C46.9580078,49.4575195 45.8095703,50.5751953 45.4506836,52.0107422 L45.4301758,52.0107422 L45.4301758,49.6113281 L44.9277344,49.6113281 L44.9277344,60.2753906 L45.4301758,60.2753906 Z M62.1410156,47.4375 C62.3871094,47.4375 62.6024414,47.2324219 62.6024414,46.9760742 C62.6024414,46.7094727 62.3871094,46.5146484 62.1410156,46.5146484 C61.884668,46.5146484 61.6693359,46.7094727 61.6693359,46.9760742 C61.6693359,47.2324219 61.884668,47.4375 62.1410156,47.4375 Z M62.3871094,60.2753906 L62.3871094,49.6113281 L61.884668,49.6113281 L61.884668,60.2753906 L62.3871094,60.2753906 Z M69.7566406,60.4394531 C72.0125,60.4394531 73.6326172,59.2602539 74.0632813,57.3120117 L74.0837891,57.2197266 L73.5608398,57.2197266 L73.540332,57.3017578 C73.1199219,58.9628906 71.7561523,59.9677734 69.7668945,59.9677734 C67.2649414,59.9677734 65.5935547,58.1938477 65.5525391,54.9741211 L74.2170898,54.9741211 L74.2170898,54.6870117 C74.2170898,51.4980469 72.3611328,49.4472656 69.6335938,49.4472656 C66.9163086,49.4472656 65.0398438,51.5083008 65.0398438,54.9331055 L65.0398438,54.9433594 C65.0398438,58.378418 66.9163086,60.4394531 69.7566406,60.4394531 Z M73.7249023,54.5126953 L65.5525391,54.5126953 C65.6243164,51.7236328 67.2854492,49.9189453 69.6335938,49.9189453 C71.9919922,49.9189453 73.653125,51.7236328 73.7249023,54.5126953 Z M77.2799805,60.2753906 L77.2799805,53.6206055 C77.2799805,51.4672852 78.3668945,49.9291992 80.1305664,49.9291992 C80.6535156,49.9291992 81.0329102,50.0419922 81.2790039,50.175293 L81.2790039,49.6523438 C81.0636719,49.5498047 80.6535156,49.4472656 80.2023438,49.4472656 C78.7257813,49.4472656 77.7414063,50.2880859 77.3004883,51.7543945 L77.2799805,51.7543945 L77.2799805,49.6113281 L76.7775391,49.6113281 L76.7775391,60.2753906 L77.2799805,60.2753906 Z M92.6547852,60.4394531 C94.9106445,60.4394531 96.5307617,59.2602539 96.9614258,57.3120117 L96.9819336,57.2197266 L96.4589844,57.2197266 L96.4384766,57.3017578 C96.0180664,58.9628906 94.6542969,59.9677734 92.6650391,59.9677734 C90.1630859,59.9677734 88.4916992,58.1938477 88.4506836,54.9741211 L97.1152344,54.9741211 L97.1152344,54.6870117 C97.1152344,51.4980469 95.2592773,49.4472656 92.5317383,49.4472656 C89.8144531,49.4472656 87.9379883,51.5083008 87.9379883,54.9331055 L87.9379883,54.9433594 C87.9379883,58.378418 89.8144531,60.4394531 92.6547852,60.4394531 Z M96.6230469,54.5126953 L88.4506836,54.5126953 C88.5224609,51.7236328 90.1835938,49.9189453 92.5317383,49.9189453 C94.8901367,49.9189453 96.5512695,51.7236328 96.6230469,54.5126953 Z M103.090234,60.4394531 C105.33584,60.4394531 106.904688,59.2397461 106.904688,57.5170898 L106.904688,57.5068359 C106.904688,56.0507812 106.033105,55.2612305 103.951563,54.769043 L102.516016,54.440918 C100.660059,54.0102539 99.9115234,53.3950195 99.9115234,52.2773438 L99.9115234,52.2670898 C99.9115234,50.9033203 101.193262,49.9086914 102.94668,49.9086914 C104.771875,49.9086914 106.012598,50.9750977 106.248438,52.6157227 L106.258691,52.6875 L106.750879,52.6875 L106.740625,52.6054688 C106.504785,50.6777344 105.1,49.4472656 102.94668,49.4472656 C100.895898,49.4472656 99.3988281,50.6162109 99.3988281,52.2670898 L99.3988281,52.2773438 C99.3988281,53.6206055 100.331934,54.4204102 102.362207,54.8920898 L103.797754,55.2304688 C105.653711,55.6611328 106.391992,56.296875 106.391992,57.5273438 L106.391992,57.5375977 C106.391992,58.9731445 105.028223,59.9780273 103.090234,59.9780273 C101.172754,59.9780273 99.7679688,58.8398438 99.5526367,57.28125 L99.5423828,57.1992188 L99.0399414,57.1992188 L99.0501953,57.2915039 C99.2552734,59.1269531 100.854883,60.4394531 103.090234,60.4394531 Z M113.484668,60.4394531 C115.658496,60.4394531 117.278613,59.1782227 117.647754,57.28125 L117.668262,57.1787109 L117.155566,57.1787109 L117.135059,57.2709961 C116.765918,58.8911133 115.340625,59.9677734 113.484668,59.9677734 C110.962207,59.9677734 109.34209,58.050293 109.34209,54.9433594 L109.34209,54.9331055 C109.34209,51.8569336 110.951953,49.9189453 113.484668,49.9189453 C115.350879,49.9189453 116.786426,51.0058594 117.155566,52.6157227 L117.176074,52.7080078 L117.68877,52.7080078 L117.668262,52.6054688 C117.309375,50.7392578 115.637988,49.4472656 113.484668,49.4472656 C110.65459,49.4472656 108.829395,51.5800781 108.829395,54.9331055 L108.829395,54.9433594 C108.829395,58.3168945 110.644336,60.4394531 113.484668,60.4394531 Z M124.350781,60.4394531 C127.150098,60.4394531 129.057324,58.3271484 129.057324,54.9433594 L129.057324,54.9228516 C129.057324,51.5390625 127.139844,49.4472656 124.350781,49.4472656 C121.551465,49.4472656 119.654492,51.5493164 119.654492,54.9228516 L119.654492,54.9433594 C119.654492,58.3168945 121.541211,60.4291992 124.350781,60.4394531 Z M124.350781,59.9677734 C121.82832,59.9575195 120.167188,58.0297852 120.167188,54.9433594 L120.167188,54.9228516 C120.167188,51.8466797 121.838574,49.9189453 124.350781,49.9189453 C126.84248,49.9189453 128.554883,51.8364258 128.554883,54.9228516 L128.554883,54.9433594 C128.554883,58.0297852 126.852734,59.9677734 124.350781,59.9677734 Z M132.120215,60.2753906 L132.120215,53.6206055 C132.120215,51.4672852 133.207129,49.9291992 134.970801,49.9291992 C135.49375,49.9291992 135.873145,50.0419922 136.119238,50.175293 L136.119238,49.6523438 C135.903906,49.5498047 135.49375,49.4472656 135.042578,49.4472656 C133.566016,49.4472656 132.581641,50.2880859 132.140723,51.7543945 L132.120215,51.7543945 L132.120215,49.6113281 L131.617773,49.6113281 L131.617773,60.2753906 L132.120215,60.2753906 Z M141.366211,60.4394531 C141.65332,60.4394531 141.930176,60.4086914 142.114746,60.3574219 L142.114746,59.9165039 C141.960938,59.9575195 141.725098,59.9780273 141.437988,59.9780273 C140.351074,59.9780273 139.858887,59.4243164 139.858887,58.152832 L139.858887,50.0727539 L142.114746,50.0727539 L142.114746,49.6113281 L139.858887,49.6113281 L139.858887,46.7299805 L139.346191,46.7299805 L139.346191,49.6113281 L137.76709,49.6113281 L137.76709,50.0727539 L139.346191,50.0727539 L139.346191,58.1938477 C139.346191,59.7114258 140.012695,60.4394531 141.366211,60.4394531 Z M152.94707,60.4394531 C154.844043,60.4394531 156.505176,59.3833008 157.007617,57.8862305 L157.028125,57.8862305 L157.028125,60.2753906 L157.530566,60.2753906 L157.530566,53.1079102 C157.530566,50.8417969 156.115527,49.4472656 153.818652,49.4472656 C151.614062,49.4472656 150.116992,50.5546875 149.819629,52.5541992 L149.799121,52.6875 L150.291309,52.6875 L150.311816,52.5644531 C150.598926,50.8417969 151.901172,49.9189453 153.818652,49.9189453 C155.828418,49.9189453 157.028125,51.1289062 157.028125,53.1489258 L157.028125,54.112793 L153.18291,54.3999023 C150.732227,54.5947266 149.42998,55.6201172 149.42998,57.4350586 L149.42998,57.4453125 C149.42998,59.2192383 150.886035,60.4394531 152.94707,60.4394531 Z M152.977832,59.9677734 C151.224414,59.9677734 149.932422,58.9116211 149.932422,57.4453125 L149.932422,57.4350586 C149.932422,55.9072266 151.111621,55.0048828 153.254687,54.8408203 L157.028125,54.5537109 L157.028125,56.3481445 C157.028125,58.3579102 155.213184,59.9677734 152.977832,59.9677734 Z M164.82832,64.0283203 C167.514844,64.0283203 169.155469,62.4902344 169.155469,60.0498047 L169.155469,49.6113281 L168.653027,49.6113281 L168.653027,52.7695312 L168.63252,52.7695312 C168.181348,50.9135742 166.602246,49.4472656 164.520703,49.4472656 C161.864941,49.4472656 160.019238,51.6621094 160.019238,54.9331055 L160.019238,54.9536133 C160.019238,58.2348633 161.854687,60.4394531 164.520703,60.4394531 C166.622754,60.4394531 168.212109,58.9731445 168.63252,57.1479492 L168.653027,57.1479492 L168.653027,60.0395508 C168.653027,62.203125 167.207227,63.5566406 164.838574,63.5566406 C162.849316,63.5566406 161.629102,62.6132812 161.229199,61.5571289 L161.198437,61.4750977 L160.675488,61.4750977 L160.695996,61.5366211 C161.136914,62.9003906 162.500684,64.0283203 164.82832,64.0283203 Z M164.551465,59.9575195 C162.162305,59.9575195 160.531934,57.9272461 160.531934,54.9536133 L160.531934,54.9331055 C160.531934,51.9492188 162.172559,49.9189453 164.551465,49.9189453 C166.950879,49.9189453 168.653027,51.9594727 168.653027,54.9331055 L168.653027,54.9433594 C168.653027,57.9067383 166.961133,59.9575195 164.551465,59.9575195 Z M176.432715,60.4394531 C178.688574,60.4394531 180.308691,59.2602539 180.739355,57.3120117 L180.759863,57.2197266 L180.236914,57.2197266 L180.216406,57.3017578 C179.795996,58.9628906 178.432227,59.9677734 176.442969,59.9677734 C173.941016,59.9677734 172.269629,58.1938477 172.228613,54.9741211 L180.893164,54.9741211 L180.893164,54.6870117 C180.893164,51.4980469 179.037207,49.4472656 176.309668,49.4472656 C173.592383,49.4472656 171.715918,51.5083008 171.715918,54.9331055 L171.715918,54.9433594 C171.715918,58.378418 173.592383,60.4394531 176.432715,60.4394531 Z M180.400977,54.5126953 L172.228613,54.5126953 C172.300391,51.7236328 173.961523,49.9189453 176.309668,49.9189453 C178.668066,49.9189453 180.329199,51.7236328 180.400977,54.5126953 Z M183.956055,60.2753906 L183.956055,53.8769531 C183.956055,51.5493164 185.463379,49.9291992 187.688477,49.9291992 C189.831543,49.9291992 191.174805,51.2109375 191.174805,53.6616211 L191.174805,60.2753906 L191.677246,60.2753906 L191.677246,53.6308594 C191.677246,50.9750977 190.19043,49.4575195 187.780762,49.4575195 C185.853027,49.4575195 184.448242,50.5546875 183.976562,52.0209961 L183.956055,52.0209961 L183.956055,49.6113281 L183.453613,49.6113281 L183.453613,60.2753906 L183.956055,60.2753906 Z M198.821191,60.4394531 C200.99502,60.4394531 202.615137,59.1782227 202.984277,57.28125 L203.004785,57.1787109 L202.49209,57.1787109 L202.471582,57.2709961 C202.102441,58.8911133 200.677148,59.9677734 198.821191,59.9677734 C196.29873,59.9677734 194.678613,58.050293 194.678613,54.9433594 L194.678613,54.9331055 C194.678613,51.8569336 196.288477,49.9189453 198.821191,49.9189453 C200.687402,49.9189453 202.122949,51.0058594 202.49209,52.6157227 L202.512598,52.7080078 L203.025293,52.7080078 L203.004785,52.6054688 C202.645898,50.7392578 200.974512,49.4472656 198.821191,49.4472656 C195.991113,49.4472656 194.165918,51.5800781 194.165918,54.9331055 L194.165918,54.9433594 C194.165918,58.3168945 195.980859,60.4394531 198.821191,60.4394531 Z M205.678027,63.8642578 C207.298145,63.8642578 208.036426,63.1157227 208.65166,61.4853516 L213.153125,49.6113281 L212.599414,49.6113281 L208.764453,59.793457 L208.743945,59.793457 L204.919238,49.6113281 L204.365527,49.6113281 L208.477344,60.4599609 L208.159473,61.3212891 C207.605762,62.8081055 206.980273,63.402832 205.637012,63.402832 C205.534473,63.402832 205.431934,63.3925781 205.339648,63.3925781 L205.339648,63.8540039 C205.452441,63.8642578 205.565234,63.8642578 205.678027,63.8642578 Z" id="apremierescortagency"></path>
		</g>
	</g>
</svg>